<svg xmlns="http://www.w3.org/2000/svg" viewBox="0 0 400 400" fill="none">
  <defs>
    <linearGradient id="flameOuter" x1="50%" y1="100%" x2="50%" y2="0%">
      <stop offset="0%" stop-color="#FFE600"/>
      <stop offset="45%" stop-color="#FF8A2B"/>
      <stop offset="100%" stop-color="#FF2E5B"/>
    </linearGradient>
    <linearGradient id="flameInner" x1="50%" y1="100%" x2="50%" y2="0%">
      <stop offset="0%" stop-color="#FFF4B2"/>
      <stop offset="60%" stop-color="#FFD33D"/>
      <stop offset="100%" stop-color="#FF6A3D"/>
    </linearGradient>
  </defs>
  <path d="M 200 390 C 120 360 70 300 90 220 C 110 180 150 175 160 140 C 165 115 150 90 175 60 C 195 100 195 135 215 135 C 240 135 225 80 255 50 C 260 100 300 115 305 170 C 315 220 340 240 320 300 C 300 360 270 385 200 390 Z" fill="url(#flameOuter)"/>
  <path d="M 200 370 C 150 350 115 305 128 245 C 142 210 172 208 180 180 C 185 160 175 142 195 120 C 208 150 208 175 223 175 C 243 175 233 135 253 115 C 258 150 285 162 288 205 C 294 240 312 255 298 300 C 284 345 255 365 200 370 Z" fill="url(#flameInner)"/>
  <path d="M 200 340 C 170 325 148 295 158 255 C 170 225 192 225 198 205 C 202 190 195 175 210 160 C 220 185 220 205 230 205 C 245 205 238 175 252 160 C 255 185 275 195 277 225 C 282 250 295 260 285 290 C 275 320 255 338 200 340 Z" fill="#FFF4B2" opacity="0.85"/>
  <circle cx="180" cy="320" r="10" fill="#FFF" opacity="0.85"/>
  <circle cx="220" cy="300" r="6" fill="#FFF" opacity="0.7"/>
</svg>
